<svg xmlns="http://www.w3.org/2000/svg" viewBox="0 0 64 64" fill="none">
  <!-- HorseSafe logo placeholder v0.0.2-Hellman: zeepaard-silhouet + sleutel -->
  <rect width="64" height="64" rx="12" fill="#4C9EEB"/>
  <path d="M22 14 C 16 14, 14 22, 18 28 C 20 31, 22 32, 22 36 L 22 50 C 22 52, 24 52, 26 50 L 26 38 C 26 36, 28 34, 30 34 L 38 34 C 42 34, 44 30, 42 26 C 40 22, 36 22, 36 18 C 36 14, 32 12, 30 14 Z"
        fill="#E6EDF3" stroke="#0E1116" stroke-width="1.5" stroke-linejoin="round"/>
  <circle cx="44" cy="40" r="6" fill="none" stroke="#E6EDF3" stroke-width="2.5"/>
  <path d="M50 42 L 56 42 M53 42 L 53 46" stroke="#E6EDF3" stroke-width="2.5" stroke-linecap="round"/>
</svg>
